PathFileType	4	(X/Y/Z)	/Users/itak/Documents/Research/Walk-IL/dataset/trc/00377_00012.trc
DataRate	CameraRate	NumFrames	NumMarkers	Units	OrigDataRate	OrigDataStartFrame	OrigNumFrames
100.000000	100.000000	4	59	mm	100.000000	128	147
Frame#	Time	RPSI			LPSI			L3			STRN			T10			C7			CLAV			RBAK			LBAK			LSHO			LUPA			LAEL			LAOL			LWTS			LWPS			LFRA			LHPS			LHTS			RSHO			RUPA			RAEL			RAOL			RWTS			RWPS			RFRA			RIFD			RHTS			RHPS			RBHD			LFHD			RFHD			LBHD			RHIP			RASI			LASI			LKNE			LTHI			LANK			LTIP			LTOE			LMT1			LMT5			LHEE			RKNE			RTHI			RANK			RTIP			RTOE			RMT1			RMT5			RHEE			LIFD			LHIP			*53			*54			*55			*56			*57			*58			
		X1	Y1	Z1	X2	Y2	Z2	X3	Y3	Z3	X4	Y4	Z4	X5	Y5	Z5	X6	Y6	Z6	X7	Y7	Z7	X8	Y8	Z8	X9	Y9	Z9	X10	Y10	Z10	X11	Y11	Z11	X12	Y12	Z12	X13	Y13	Z13	X14	Y14	Z14	X15	Y15	Z15	X16	Y16	Z16	X17	Y17	Z17	X18	Y18	Z18	X19	Y19	Z19	X20	Y20	Z20	X21	Y21	Z21	X22	Y22	Z22	X23	Y23	Z23	X24	Y24	Z24	X25	Y25	Z25	X26	Y26	Z26	X27	Y27	Z27	X28	Y28	Z28	X29	Y29	Z29	X30	Y30	Z30	X31	Y31	Z31	X32	Y32	Z32	X33	Y33	Z33	X34	Y34	Z34	X35	Y35	Z35	X36	Y36	Z36	X37	Y37	Z37	X38	Y38	Z38	X39	Y39	Z39	X40	Y40	Z40	X41	Y41	Z41	X42	Y42	Z42	X43	Y43	Z43	X44	Y44	Z44	X45	Y45	Z45	X46	Y46	Z46	X47	Y47	Z47	X48	Y48	Z48	X49	Y49	Z49	X50	Y50	Z50	X51	Y51	Z51	X52	Y52	Z52	X53	Y53	Z53	X54	Y54	Z54	X55	Y55	Z55	X56	Y56	Z56	X57	Y57	Z57	X58	Y58	Z58	X59	Y59	Z59	

129	1.28	25.60292816162109	950.353271484375	-67.30750274658203	29.28821563720703	929.6181640625	-198.8198394775391	25.70873641967773	1018.340270996094	-125.1082077026367	264.9990234375	1169.892456054688	-117.0691146850586	12.85833168029785	1123.358520507812	-123.8122406005859	59.55677795410156	1370.733032226562	-123.4257736206055	210.7511596679688	1288.452270507812	-119.7964401245117	10.81527423858643	1227.8935546875	-55.79582977294922	38.35133743286133	1333.697875976562	-223.49072265625	123.0353088378906	1342.7373046875	-279.7677001953125	64.76272583007812	1232.348510742188	-336.2987365722656	18.99357986450195	1041.06201171875	-344.578857421875	-19.52642250061035	1035.399536132812	-269.0582885742188	45.53960037231445	806.8887939453125	-306.8402709960938	-21.11879920959473	812.0487670898438	-355.3313598632812	-0.942888081073761	937.3385620117188	-350.3446655273438	-37.44132614135742	727.7190551757812	-343.3351440429688	19.13746070861816	707.666748046875	-320.8725280761719	117.5227661132812	1350.418090820312	34.53606796264648	103.429069519043	1285.337890625	95.00102233886719	115.3238906860352	1025.248413085938	144.7855987548828	106.1137313842773	1006.036926269531	50.15113067626953	326.0133666992188	905.4318237304688	149.3700256347656	287.5792541503906	869.0877685546875	201.0019378662109	157.2447662353516	974.2770385742188	165.8400573730469	428.2878723144531	767.9063720703125	171.5293426513672	398.3897705078125	833.3414306640625	185.5686492919922	345.1105346679688	801.3004150390625	212.6000061035156	110.5469360351562	1556.41650390625	-40.73284530639648	247.2455749511719	1552.735961914062	-184.5260467529297	241.374755859375	1559.463500976562	-62.19827651977539	99.67965698242188	1546.056274414062	-202.1609191894531	112.1273498535156	943.68798828125	58.76536560058594	235.1956024169922	933.2105102539062	16.05437660217285	236.5861358642578	923.9556884765625	-248.1837463378906	346.7786254882812	468.7372131347656	-262.8370361328125	278.5242004394531	592.2186279296875	-280.4314575195312	454.6241760253906	29.66318321228027	-220.6353912353516	400.7085876464844	238.4457397460938	-256.0792236328125	644.2710571289062	116.4669799804688	-158.2547454833984	573.9423217773438	89.08433532714844	-127.0421447753906	575.459228515625	67.23888397216797	-231.8039398193359	418.6694946289062	23.59589958190918	-163.9490814208984	50.95642471313477	450.0625915527344	14.81700038909912	143.9426727294922	699.4882202148438	56.03276062011719	-115.8041076660156	57.79810333251953	-43.83764266967773	26.19641876220703	324.3777770996094	-10.58724784851074	55.30978012084961	34.15091705322266	-121.9019470214844	-21.52761840820312	43.23120880126953	-144.4279327392578	-33.60779571533203	40.03502655029297	-43.74045944213867	-193.6481018066406	65.05073547363281	-92.76216125488281	-21.9705810546875	638.05517578125	-295.852294921875	131.5500030517578	917.0826416015625	-301.2858276367188	nan	nan	nan	nan	nan	nan	nan	nan	nan	nan	nan	nan	nan	nan	nan	nan	nan	nan	
130	1.29	37.51949310302734	948.6788330078125	-68.85764312744141	41.10620880126953	927.9826049804688	-200.5104217529297	37.82175445556641	1016.40576171875	-126.4768905639648	276.47021484375	1168.030883789062	-117.3468856811523	24.73480033874512	1121.221069335938	-124.5911865234375	70.72303009033203	1368.745361328125	-124.448127746582	222.1169738769531	1286.505737304688	-120.4124145507812	22.29723930358887	1225.793212890625	-56.77966690063477	49.70059967041016	1331.41357421875	-224.5085144042969	134.4815216064453	1340.456665039062	-280.6653137207031	76.40785980224609	1229.783081054688	-336.9347229003906	30.76957511901855	1038.477661132812	-344.9631652832031	-7.606501579284668	1032.812744140625	-269.3595581054688	56.53240966796875	804.151123046875	-306.5583801269531	-9.818625450134277	809.6573486328125	-355.3619689941406	10.65394020080566	934.83203125	-350.5353393554688	-26.53292083740234	725.4410400390625	-343.1626892089844	29.45172309875488	704.72607421875	-320.1484985351562	128.518310546875	1348.582763671875	33.71183776855469	114.3174514770508	1283.348510742188	94.08367156982422	126.0867385864258	1023.296569824219	143.1386413574219	117.5308456420898	1004.112182617188	48.57186126708984	336.5426330566406	902.719482421875	148.9546051025391	297.5506286621094	866.3539428710938	200.1454620361328	167.8588714599609	971.9165649414062	164.4398193359375	438.0518188476562	764.5988159179688	171.4698944091797	408.3202514648438	830.1024780273438	185.4108581542969	354.3066711425781	798.2223510742188	211.8058471679688	120.9394760131836	1554.544921875	-41.80305862426758	257.8794555664062	1551.231811523438	-185.3981475830078	251.8385772705078	1558.015991210938	-63.07233428955078	110.3802947998047	1544.033203125	-203.2285919189453	123.2029571533203	941.8387451171875	57.75352096557617	246.6934967041016	931.3189086914062	16.16847991943359	249.4477081298828	922.3349609375	-248.2779846191406	359.2234191894531	467.1746826171875	-262.7559814453125	291.3330993652344	590.7910766601562	-280.6145629882812	468.3557434082031	29.08984565734863	-219.913330078125	414.041015625	237.2230529785156	-255.5157318115234	657.1714477539062	116.2024917602539	-155.4282989501953	586.5008544921875	88.611328125	-124.8954162597656	589.2048950195312	66.67049407958984	-229.5958557128906	431.528076171875	23.45991516113281	-163.5856781005859	58.33750152587891	449.4647521972656	14.31498336791992	153.5339660644531	697.975341796875	55.66287994384766	-115.1866302490234	59.32120895385742	-43.62818908691406	31.41110038757324	323.9479675292969	-10.8343334197998	55.46230697631836	34.02959060668945	-121.8850173950195	-21.0292797088623	44.00723266601562	-144.1116027832031	-33.11243438720703	40.10786056518555	-43.53752136230469	-192.7990112304688	68.14548492431641	-92.60227966308594	-11.66731739044189	635.8564453125	-295.3377685546875	144.3667602539062	915.3222045898438	-301.7532958984375	nan	nan	nan	nan	nan	nan	nan	nan	nan	nan	nan	nan	nan	nan	nan	nan	nan	nan	
131	1.3	49.74867248535156	947.2138061523438	-70.36457061767578	53.16422653198242	926.6849365234375	-202.1935424804688	50.25316619873047	1014.679870605469	-127.7862091064453	288.1164855957031	1166.466918945312	-117.6388320922852	36.79814147949219	1119.28857421875	-125.375244140625	81.93119812011719	1366.95458984375	-125.4928436279297	233.5996704101562	1284.831420898438	-121.0291137695312	33.97488784790039	1223.875244140625	-57.76437377929688	61.15291595458984	1329.329711914062	-225.5635375976562	146.0574340820312	1338.417602539062	-281.5680236816406	88.29286193847656	1227.426635742188	-337.6332702636719	42.94866180419922	1036.072509765625	-345.483154296875	4.649077892303467	1030.375732421875	-269.8297729492188	68.17418670654297	801.6331176757812	-306.3900146484375	2.17783784866333	807.386474609375	-355.5960998535156	22.75139236450195	932.4744873046875	-350.8851318359375	-14.84490871429443	723.26171875	-343.2118835449219	40.66983795166016	702.1007690429688	-319.6452941894531	139.5641937255859	1346.973266601562	32.87313842773438	125.2515182495117	1281.598999023438	93.13801574707031	136.723388671875	1021.54296875	141.4454193115234	128.8787078857422	1002.47119140625	46.89243698120117	346.7447509765625	899.7947387695312	148.4668579101562	307.1083679199219	863.4560546875	199.1645812988281	178.2771911621094	969.6875	162.9715881347656	447.1899108886719	760.8524780273438	171.2324829101562	417.7510070800781	826.4772338867188	185.1258087158203	362.9987182617188	794.8580932617188	210.8613739013672	131.3735046386719	1552.934448242188	-42.88661956787109	268.5584411621094	1549.966918945312	-186.2920074462891	262.3487548828125	1556.81298828125	-63.96292877197266	121.1211776733398	1542.252807617188	-204.3064422607422	134.6732177734375	940.0860595703125	56.70226287841797	258.581298828125	929.5645141601562	16.16989898681641	262.4699096679688	921.08837890625	-248.5066375732422	371.9688720703125	466.0337219238281	-262.4076538085938	304.4048461914062	589.687255859375	-280.7228698730469	479.165771484375	28.64949989318848	-219.2981414794922	426.3843688964844	236.0591278076172	-254.7674102783203	668.1736450195312	113.3209075927734	-152.6464080810547	596.8781127929688	86.34649658203125	-122.831672668457	600.3853149414062	64.68549346923828	-227.4821929931641	441.4953308105469	23.78357887268066	-163.2834625244141	66.24713897705078	448.9838256835938	13.73440361022949	163.6370697021484	696.5611572265625	55.1313591003418	-114.3567123413086	61.10335159301758	-43.20362854003906	37.07087326049805	323.6960144042969	-11.03505516052246	55.56567001342773	33.92227172851562	-121.8767929077148	-20.43082809448242	44.96957397460938	-143.6690216064453	-32.51263046264648	40.16493606567383	-43.22299957275391	-191.7440032958984	71.72280120849609	-92.1728515625	-0.5343486666679382	633.7774658203125	-295.033935546875	157.3596649169922	913.966064453125	-302.3563842773438	nan	nan	nan	nan	nan	nan	nan	nan	nan	nan	nan	nan	nan	nan	nan	nan	nan	nan	
132	1.31	62.31497192382812	945.9883422851562	-71.79685211181641	65.55704498291016	925.767333984375	-203.8228912353516	63.03401184082031	1013.179504394531	-129.0033111572266	299.9595336914062	1165.2490234375	-117.9565582275391	49.03044509887695	1117.605102539062	-126.1708221435547	93.19512176513672	1365.39892578125	-126.5489120483398	245.2156219482422	1283.478759765625	-121.6495132446289	45.86579132080078	1222.1689453125	-58.74504089355469	72.71563720703125	1327.484497070312	-226.6468048095703	157.7673034667969	1336.669311523438	-282.4729919433594	100.4232025146484	1225.329711914062	-338.3938293457031	55.5522346496582	1033.898315429688	-346.1398010253906	17.2596378326416	1028.12890625	-270.4700622558594	80.51811981201172	799.39208984375	-306.3650512695312	14.9075984954834	805.2800903320312	-356.0433349609375	35.38086700439453	930.3121948242188	-351.4003295898438	-2.337185144424438	721.2208251953125	-343.496337890625	52.87652587890625	699.8738403320312	-319.4137878417969	150.6696014404297	1345.626708984375	32.02321243286133	136.2539672851562	1280.122802734375	92.16517639160156	147.2528228759766	1020.012573242188	139.713623046875	140.1699981689453	1001.140014648438	45.12356185913086	356.6117248535156	896.6851196289062	147.8942565917969	316.2416076660156	860.4278564453125	198.0524139404297	188.5032806396484	967.6311645507812	161.437744140625	455.6991577148438	756.716064453125	170.7984008789062	426.6727905273438	822.50732421875	184.6990203857422	371.1951904296875	791.2528076171875	209.7577514648438	141.8750152587891	1551.631591796875	-43.9787483215332	279.2990417480469	1548.978759765625	-187.2015075683594	272.9166564941406	1555.894897460938	-64.86748504638672	131.9169006347656	1540.758422851562	-205.3918304443359	146.6023559570312	938.4458618164062	55.6342658996582	270.9032287597656	927.9742431640625	16.01954078674316	275.6487731933594	920.2642822265625	-248.8999786376953	384.9776611328125	465.3400268554688	-261.8286743164062	317.6836242675781	588.937255859375	-280.7909851074219	487.2548522949219	28.45575523376465	-218.7252349853516	437.8450317382812	235.0075225830078	-253.8128662109375	677.534912109375	107.8868865966797	-149.9885559082031	605.3465576171875	82.41009521484375	-120.8822479248047	609.1836547851562	61.43122100830078	-225.4927215576172	448.8524780273438	24.59631156921387	-162.9606018066406	74.73711395263672	448.6222839355469	13.07958602905273	174.2947387695312	695.2845458984375	54.42399215698242	-113.2612762451172	63.18290328979492	-42.5541877746582	43.23682022094727	323.6412963867188	-11.16423892974854	55.62200164794922	33.8232421875	-121.8710098266602	-19.72349548339844	46.11629867553711	-143.1101684570312	-31.7891674041748	40.22134399414062	-42.798828125	-190.4099426269531	75.84559631347656	-91.46482086181641	11.48283004760742	631.85498046875	-294.9629516601562	170.5214691162109	913.0658569335938	-303.1248779296875	nan	nan	nan	nan	nan	nan	nan	nan	nan	nan	nan	nan	nan	nan	nan	nan	nan	nan	
